HIERARCHY
ROOT Hips
{
	OFFSET 39.935200 -4.020926 98.816299
	CHANNELS 6 Xposition Yposition Zposition Xrotation Yrotation Zrotation
	JOINT spine
	{
		OFFSET 0.000000 -0.477353 8.301033
		CHANNELS 3 Xrotation Yrotation Zrotation
		JOINT spine1
		{
			OFFSET 0.000000 -0.000001 10.456497
			CHANNELS 3 Xrotation Yrotation Zrotation
			JOINT spine2
			{
				OFFSET 0.000000 -0.000002 10.019203
				CHANNELS 3 Xrotation Yrotation Zrotation
				JOINT Neck
				{
					OFFSET 0.000000 -1.226414 25.723495
					CHANNELS 3 Xrotation Yrotation Zrotation
					JOINT Head
					{
						OFFSET 0.000000 -0.000001 7.771744
						CHANNELS 3 Xrotation Yrotation Zrotation
						End Site
						{
							OFFSET 0.000000 6.203937 18.811996
						}
					}
				}
				JOINT RightShoulder
				{
					OFFSET -4.218800 0.587437 10.819992
					CHANNELS 3 Xrotation Yrotation Zrotation
					JOINT RightArm
					{
						OFFSET 0.000000 -0.000002 14.191406
						CHANNELS 3 Xrotation Yrotation Zrotation
						JOINT RightArmRoll
						{
							OFFSET 0.000000 -0.000001 7.164078
							CHANNELS 3 Xrotation Yrotation Zrotation
							JOINT RightForeArm
							{
								OFFSET 0.000000 -0.000003 20.866501
								CHANNELS 3 Xrotation Yrotation Zrotation
								JOINT RightForeArmRoll
								{
									OFFSET 0.000000 -0.000001 8.039215
									CHANNELS 3 Xrotation Yrotation Zrotation
									JOINT RightHand
									{
										OFFSET 0.000000 -0.000003 16.132996
										CHANNELS 3 Xrotation Yrotation Zrotation
										End Site
										{
											OFFSET 0.000000 0.000000 0.100006
										}
									}
								}
							}
						}
					}
				}
				JOINT LeftShoulder
				{
					OFFSET 4.218800 0.587437 10.819992
					CHANNELS 3 Xrotation Yrotation Zrotation
					JOINT LeftArm
					{
						OFFSET 0.000000 -0.000002 14.191406
						CHANNELS 3 Xrotation Yrotation Zrotation
						JOINT LeftArmRoll
						{
							OFFSET 0.000000 -0.000001 7.164078
							CHANNELS 3 Xrotation Yrotation Zrotation
							JOINT LeftForeArm
							{
								OFFSET 0.000000 -0.000003 20.866501
								CHANNELS 3 Xrotation Yrotation Zrotation
								JOINT LeftForeArmRoll
								{
									OFFSET 0.000000 -0.000001 8.039215
									CHANNELS 3 Xrotation Yrotation Zrotation
									JOINT LeftHand
									{
										OFFSET 0.000000 -0.000003 16.132996
										CHANNELS 3 Xrotation Yrotation Zrotation
										End Site
										{
											OFFSET 0.000000 0.000000 0.100006
										}
									}
								}
							}
						}
					}
				}
			}
		}
	}
	JOINT RightUpLeg
	{
		OFFSET -7.357731 1.131810 -1.349213
		CHANNELS 3 Xrotation Yrotation Zrotation
		JOINT RightUpLegRoll
		{
			OFFSET 0.000000 -0.000003 18.916801
			CHANNELS 3 Xrotation Yrotation Zrotation
			JOINT RightLeg
			{
				OFFSET 0.000000 0.000004 -23.425598
				CHANNELS 3 Xrotation Yrotation Zrotation
				JOINT RightLegRoll
				{
					OFFSET 0.000000 -0.000004 23.502296
					CHANNELS 3 Xrotation Yrotation Zrotation
					JOINT RightFoot
					{
						OFFSET 0.000000 -0.000003 19.561707
						CHANNELS 3 Xrotation Yrotation Zrotation
						JOINT RightToeBase
						{
							OFFSET 0.000000 -0.000003 16.352600
							CHANNELS 3 Xrotation Yrotation Zrotation
							End Site
							{
								OFFSET 0.006931 0.912836 7.919434
							}
						}
					}
				}
			}
		}
	}
	JOINT LeftUpLeg
	{
		OFFSET 7.357731 1.131810 -1.349213
		CHANNELS 3 Xrotation Yrotation Zrotation
		JOINT LeftUpLegRoll
		{
			OFFSET 0.000000 -0.000003 18.916901
			CHANNELS 3 Xrotation Yrotation Zrotation
			JOINT LeftLeg
			{
				OFFSET 0.000000 -0.000004 23.425507
				CHANNELS 3 Xrotation Yrotation Zrotation
				JOINT LeftLegRoll
				{
					OFFSET 0.000000 -0.000004 23.719498
					CHANNELS 3 Xrotation Yrotation Zrotation
					JOINT LeftFoot
					{
						OFFSET 0.000000 -0.000003 19.344406
						CHANNELS 3 Xrotation Yrotation Zrotation
						JOINT LeftToeBase
						{
							OFFSET 0.000000 -0.000003 16.352600
							CHANNELS 3 Xrotation Yrotation Zrotation
							End Site
							{
								OFFSET -0.031063 0.912835 7.919434
							}
						}
					}
				}
			}
		}
	}
}
MOTION
Frames: 7
Frame Time: 0.041667
39.825699 -2.879396 98.823990 -3.358578 -0.903768 0.344039 -1.187669 -0.077750 0.040243 1.636686 -0.160349 0.088024 3.281753 -0.159238 0.089810 20.967125 2.055374 -2.094632 -7.153950 -0.921075 -1.999012 -2.259706 -74.237449 -4.247255 -72.216437 -113.905241 -45.074939 -0.000002 -0.000002 -0.000006 0.050017 -7.370338 -0.077297 0.000005 0.000007 -3.083253 -5.000202 -7.999033 0.000131 5.174798 65.188685 -5.071253 -42.270432 108.549813 27.623641 0.000002 0.000001 -0.000001 6.614061 11.420813 -0.147358 -0.000002 -0.000006 3.008760 -5.000219 7.998741 -0.000170 0.719528 -174.995402 2.023811 -179.999991 0.000006 -1.082006 174.701117 -4.493795 -0.636349 -0.000008 0.000001 0.065458 68.616941 6.877429 2.183358 25.456957 -7.355617 0.000000 0.608648 176.130225 1.057202 -0.000005 -0.000004 -1.166130 -9.532870 3.256757 0.974080 0.000004 -0.000003 -0.123772 68.539289 -6.927568 -2.075126 25.456959 7.355614 0.000000 
39.830700 -2.882296 98.797295 -3.368830 -0.905336 0.347499 -1.186179 -0.077699 0.040940 1.639007 -0.159908 0.088553 3.284073 -0.158793 0.090346 20.970732 2.048235 -2.098117 -7.148241 -0.910622 -2.002948 -2.261160 -74.243637 -4.249412 -72.332701 -113.930499 -45.028261 -0.000003 -0.000002 -0.000006 0.049269 -7.208879 -0.070418 0.000003 0.000007 -3.084871 -5.000205 -7.999031 0.000127 5.177563 65.192291 -5.073846 -42.310051 108.559389 27.621524 0.000001 0.000002 -0.000000 6.603234 11.384582 -0.141147 0.000001 -0.000006 3.008761 -5.000219 7.998741 -0.000170 0.728844 -174.994405 2.026976 -179.999991 0.000005 -1.082006 174.697278 -4.493766 -0.636651 -0.000008 0.000001 0.065459 68.615049 6.877443 2.183379 25.456959 -7.355616 0.000000 0.621247 176.132233 1.055023 -0.000005 -0.000004 -1.166130 -9.527292 3.258812 0.973538 0.000004 -0.000003 -0.123772 68.535088 -6.927609 -2.074996 25.456960 7.355613 0.000000 
39.832199 -2.887546 98.800194 -3.379123 -0.906885 0.350859 -1.184680 -0.077624 0.041647 1.641316 -0.159364 0.089054 3.286383 -0.158245 0.090852 20.974324 2.040080 -2.101540 -7.142404 -0.899092 -2.006899 -2.262393 -74.250734 -4.251435 -72.450822 -113.955238 -44.986006 -0.000004 -0.000000 -0.000002 0.048560 -7.050048 -0.064467 0.000001 0.000008 -3.086501 -5.000204 -7.999030 0.000127 5.180763 65.195201 -5.077016 -42.350431 108.567906 27.623623 0.000001 0.000001 -0.000001 6.593603 11.351102 -0.135348 0.000000 -0.000006 3.008760 -5.000220 7.998742 -0.000170 0.738136 -174.993408 2.030120 -179.999991 0.000005 -1.083003 174.693399 -4.493738 -0.635958 -0.000008 0.000000 0.065458 68.613150 6.877423 2.183394 25.456959 -7.355615 -0.000000 0.634095 176.134227 1.052798 -0.000005 -0.000005 -1.166130 -9.521272 3.260931 0.972948 0.000004 -0.000003 -0.123772 68.530853 -6.927573 -2.075055 25.456957 7.355614 0.000000 
39.829800 -2.886108 98.792992 -3.389445 -0.908422 0.354146 -1.183180 -0.077532 0.042360 1.643616 -0.158750 0.089534 3.288683 -0.157627 0.091337 20.977903 2.031225 -2.104914 -7.136479 -0.886809 -2.010837 -2.263500 -74.258629 -4.253383 -72.570289 -113.979765 -44.946692 -0.000003 -0.000002 -0.000005 0.047866 -6.893069 -0.059169 0.000001 0.000008 -3.088150 -5.000201 -7.999033 0.000129 5.184261 65.197782 -5.080595 -42.387590 108.576847 27.624968 0.000001 0.000002 -0.000001 6.584786 11.319394 -0.129815 0.000002 -0.000006 3.008759 -5.000223 7.998741 -0.000170 0.747411 -174.991427 2.033276 -179.999991 0.000006 -1.083003 174.689478 -4.493710 -0.636265 -0.000008 0.000001 0.065458 68.611258 6.877438 2.183313 25.456957 -7.355616 -0.000001 0.647119 176.136249 1.050523 -0.000005 -0.000005 -1.166130 -9.514922 3.263112 0.972323 0.000004 -0.000003 -0.123772 68.526427 -6.927561 -2.075130 25.456960 7.355613 0.000000 
39.834099 -2.897299 98.790192 -3.399787 -0.909953 0.357391 -1.181671 -0.077429 0.043078 1.645916 -0.158095 0.090003 3.290982 -0.156968 0.091810 20.981479 2.021959 -2.108248 -7.130495 -0.874097 -2.014783 -2.264537 -74.267017 -4.255303 -72.690466 -114.003835 -44.909071 -0.000001 -0.000002 -0.000006 0.047196 -6.737138 -0.054236 0.000002 0.000008 -3.089800 -5.000205 -7.999032 0.000130 5.187917 65.199961 -5.084386 -42.424231 108.585671 27.627111 0.000001 0.000001 0.000000 6.576461 11.288768 -0.124460 0.000000 -0.000006 3.008760 -5.000221 7.998742 -0.000170 0.756675 -174.990430 2.036418 -179.999991 0.000005 -1.083004 174.685571 -4.492688 -0.636478 -0.000008 0.000001 0.065458 68.609353 6.877419 2.183428 25.456959 -7.355616 -0.000000 0.660242 176.138257 1.048232 -0.000004 -0.000005 -1.166130 -9.508399 3.265315 0.971677 0.000004 -0.000003 -0.123772 68.522015 -6.927583 -2.075012 25.456959 7.355615 0.000000 
39.839199 -2.897385 98.817192 -3.410133 -0.911482 0.360626 -1.180159 -0.077325 0.043796 1.648206 -0.157429 0.090469 3.293273 -0.156299 0.092280 20.985056 2.012591 -2.111583 -7.124500 -0.861277 -2.018738 -2.265543 -74.275411 -4.257190 -72.811073 -114.027713 -44.872092 -0.000002 -0.000002 -0.000005 0.046521 -6.581469 -0.049400 -0.000001 0.000008 -3.091448 -5.000203 -7.999032 0.000127 5.191623 65.202140 -5.088242 -42.460619 108.594428 27.629410 0.000001 0.000002 0.000000 6.568249 11.258536 -0.119158 0.000002 -0.000006 3.008760 -5.000222 7.998741 -0.000169 0.765938 -174.989447 2.039550 -179.999991 0.000005 -1.083003 174.681651 -4.492660 -0.635788 -0.000008 0.000001 0.065459 68.607468 6.877432 2.183348 25.456960 -7.355615 0.000000 0.673392 176.140265 1.045939 -0.000005 -0.000005 -1.166130 -9.501831 3.267517 0.971024 0.000004 -0.000003 -0.123772 68.517487 -6.927599 -2.075097 25.456960 7.355614 0.000001 
39.836300 -2.897547 98.804787 -3.420477 -0.913017 0.363882 -1.178660 -0.077224 0.044512 1.650497 -0.156784 0.090941 3.295573 -0.155650 0.092756 20.988738 2.003418 -2.114935 -7.118532 -0.848674 -2.022683 -2.266592 -74.283614 -4.259107 -72.931312 -114.051284 -44.834342 -0.000001 -0.000002 -0.000004 0.045845 -6.425268 -0.044367 -0.000000 0.000007 -3.093099 -5.000204 -7.999030 0.000130 5.195249 65.204517 -5.091994 -42.497195 108.603259 27.631184 0.000002 0.000003 -0.000000 6.559802 11.227609 -0.113774 0.000001 -0.000006 3.008760 -5.000220 7.998742 -0.000169 0.775209 -174.987452 2.042706 -179.999991 0.000005 -1.084000 174.677771 -4.492631 -0.636094 -0.000008 0.000000 0.065459 68.605562 6.877413 2.183363 25.456959 -7.355616 0.000000 0.686492 176.142273 1.043651 -0.000005 -0.000005 -1.166130 -9.495350 3.269720 0.970383 0.000004 -0.000004 -0.123772 68.513054 -6.927584 -2.075074 25.456960 7.355614 0.000001 
